<?xml version="1.0" encoding="UTF-8" standalone="no"?>
<!-- Created with Inkscape (http://www.inkscape.org/) -->

<svg
   width="1920px"
   height="1080px"
   viewBox="0 0 1920 1080"
   version="1.1"
   id="SVGRoot"
   sodipodi:docname="draw1.svg"
   inkscape:version="1.2.2 (732a01da63, 2022-12-09)"
   xmlns:inkscape="http://www.inkscape.org/namespaces/inkscape"
   xmlns:sodipodi="http://sodipodi.sourceforge.net/DTD/sodipodi-0.dtd"
   xmlns="http://www.w3.org/2000/svg"
   xmlns:svg="http://www.w3.org/2000/svg">
  <sodipodi:namedview
     id="namedview1595"
     pagecolor="#ffffff"
     bordercolor="#000000"
     borderopacity="0.25"
     inkscape:showpageshadow="2"
     inkscape:pageopacity="0.0"
     inkscape:pagecheckerboard="0"
     inkscape:deskcolor="#d1d1d1"
     inkscape:document-units="px"
     showgrid="true"
     inkscape:zoom="0.5"
     inkscape:cx="700"
     inkscape:cy="504"
     inkscape:window-width="1920"
     inkscape:window-height="1009"
     inkscape:window-x="-8"
     inkscape:window-y="-8"
     inkscape:window-maximized="1"
     inkscape:current-layer="layer1">
    <inkscape:grid
       type="xygrid"
       id="grid1605" />
  </sodipodi:namedview>
  <defs
     id="defs1590" />
  <g
     inkscape:label="图层 1"
     inkscape:groupmode="layer"
     id="layer1">
    <g
       id="g1911"
       inkscape:label="poor_old_user">
      <path
         id="path2178"
         style="fill:none;fill-opacity:1;stroke:#000000;stroke-width:7.55906;stroke-opacity:1"
         d="m 160,40 a 60,60 0 0 0 -60,60 60,60 0 0 0 23.11133,47.14258 A 100,100 0 0 0 60,240 H 260 A 100,100 0 0 0 196.94922,147.09961 60,60 0 0 0 220,100 60,60 0 0 0 160,40 Z" />
      <path
         id="path2205"
         style="fill:#000000;fill-opacity:1;stroke:none;stroke-width:7.55906"
         d="m 310.71094,69.289062 -7.07227,7.072266 A 90,90 0 0 1 330,140 90,90 0 0 1 303.63867,203.63867 l 6.89258,6.89258 A 100,100 0 0 0 340,140 100,100 0 0 0 310.71094,69.289062 Z m -14.16406,14.164063 -7.07032,7.070313 A 70,70 0 0 1 310,140 70,70 0 0 1 289.30859,189.30859 l 7.25977,7.25977 A 80,80 0 0 0 320,140 80,80 0 0 0 296.54688,83.453125 Z m -14.14063,14.140625 -7.07227,7.07227 A 50,50 0 0 1 290,140 50,50 0 0 1 275.35547,175.35547 l 6.91015,6.91015 A 60,60 0 0 0 300,140 60,60 0 0 0 282.40625,97.59375 Z m -14.12109,14.12109 -7.07227,7.07227 A 30,30 0 0 1 270,140 a 30,30 0 0 1 -8.78711,21.21289 l 6.89258,6.89258 A 40,40 0 0 0 280,140 40,40 0 0 0 268.28516,111.71484 Z" />
    </g>
    <path
       id="path2911"
       style="fill:none;fill-opacity:1;stroke:#000000;stroke-width:7.55906;stroke-opacity:1"
       d="m 360,140 h 30 l 20,-50 50,100 20,-50 h 30 m 0,-50 H 460 V 40 M 360,40 V 240 H 510 V 90 L 460,40 Z"
       inkscape:label="original_sample" />
    <path
       id="path2915"
       style="fill:none;fill-opacity:1;stroke:#000000;stroke-width:7.55906;stroke-opacity:1"
       d="m 560,140 h 30 c 0,0 20.63094,-121.995921 45.67596,-0.86481 24.81116,120 43.45923,0 43.45923,0 L 710,140 m 0,-50 H 660 V 40 M 560,40 V 240 H 710 V 90 L 660,40 Z"
       inkscape:label="desensitized_sample" />
    <path
       id="path398"
       style="fill:none;stroke:#000000;stroke-width:7.559;stroke-dasharray:none;stroke-opacity:1"
       d="m 183,484 c -14,32 71,57 71,7 m 26,-91 -10,50 h -40 z m -130,0 50,50 h -40 z m 148,-30 c 50,-10 10,-60 10,-60 0,0 50,18.37722 50,50 0,40 -40,40 -40,40 M 140,370 c -50,-10 -10,-60 -10,-60 0,0 -50,18.37722 -50,50 0,40 40,40 40,40 m 59.5445,-44.92398 a 66.545233,66.126552 0 0 0 -66.46147,64.96416 73.939148,73.473946 0 0 0 -44.447248,67.28894 73.939148,73.473946 0 0 0 73.939148,73.47395 73.939148,73.473946 0 0 0 36.96957,-10.03379 73.939148,73.473946 0 0 0 36.96958,10.03379 73.939148,73.473946 0 0 0 36.96958,-10.03379 73.939148,73.473946 0 0 0 36.96957,10.03379 73.939148,73.473946 0 0 0 73.93914,-73.47395 A 73.939148,73.473946 0 0 0 320,420 66.545233,66.126552 0 0 0 253.48366,355.07602 66.545233,66.126552 0 0 0 216.57762,366.26643 66.545233,66.126552 0 0 0 179.5445,355.07602 Z"
       inkscape:label="malicious_cloud_success" />
    <path
       id="path398-2"
       style="fill:none;stroke:#000000;stroke-width:7.559;stroke-dasharray:none;stroke-opacity:1"
       d="m 635.27088,839.00244 c 14,-32 -71.00007,-57 -71.00007,-7 M 664.99998,715 l -10,50 H 615 Z M 535,715 l 50,50 h -40 z m 147.99998,-30 c 50,-10 10,-60 10,-60 0,0 50,18.37722 50,50 0,40 -40,40 -40,40 M 525,685 c -50,-10 -10,-60 -10,-60 0,0 -50,18.37722 -50,50 0,40 40,40 40,40 m 59.5445,-44.92398 a 66.545233,66.126552 0 0 0 -66.46147,64.96416 73.939148,73.473946 0 0 0 -44.44725,67.28894 73.939148,73.473946 0 0 0 73.93915,73.47395 73.939148,73.473946 0 0 0 36.96957,-10.03379 73.939148,73.473946 0 0 0 36.96958,10.03379 73.939148,73.473946 0 0 0 36.9696,-10.03379 73.939148,73.473946 0 0 0 36.9695,10.03379 73.939148,73.473946 0 0 0 73.9392,-73.47395 A 73.939148,73.473946 0 0 0 704.99998,735 66.545233,66.126552 0 0 0 638.48368,670.07602 66.545233,66.126552 0 0 0 601.57762,681.26643 66.545233,66.126552 0 0 0 564.5445,670.07602 Z"
       inkscape:label="malicious_cloud_failure" />
    <path
       id="path2565"
       style="fill:none;stroke:#000000;stroke-width:7.559;stroke-dasharray:none;stroke-opacity:1"
       d="m 271.62129,588.2607 c -2.40052,-2.55282 -6.16957,-4.30341 -10.71157,-4.30341 h -28.28427 v 28.28427 c 0,11.18032 10.60661,17.67765 17.67767,10.60659 7.07106,-7.07106 3.53554,-17.67767 3.53554,-17.67767 0,0 10.6066,3.53553 17.67766,-3.53553 4.19844,-4.19844 3.6134,-9.64322 0.10497,-13.37425 z m 95.35445,130.04688 h 28.28427 l 21.2132,21.2132 h -28.28427 v 28.28427 l -21.2132,-21.21321 z M 253.83866,605.17049 388.18894,739.52078 M 416.14173,626.05221 274.72037,767.47357 M 423.2128,633.12327 c 0,0 -70.71068,-70.71068 -141.42136,0 -70.71067,70.71069 0,141.42136 0,141.42136 0,0 -49.49747,-63.63961 14.14214,-127.27922 C 359.57319,583.6258 423.2128,633.12327 423.2128,633.12327 Z M 132,756 c -10,50 24,57 40,60 0,0 38,10 50,-45 m 18,-31 a 10,10 0 0 1 -10,10 10,10 0 0 1 -10,-10 10,10 0 0 1 10,-10 10,10 0 0 1 10,10 z m -87.77948,-17 a 10,10 0 0 1 -10,10 10,10 0 0 1 -10,-10 10,10 0 0 1 10,-10 10,10 0 0 1 10,10 z m -3.75905,-61.96416 A 66.545233,66.126552 0 0 0 82,726 a 73.939148,73.473946 0 0 0 -44.44725,67.28894 73.939148,73.473946 0 0 0 73.93915,73.47395 73.939148,73.473946 0 0 0 36.96957,-10.03379 73.939148,73.473946 0 0 0 36.96958,10.03379 73.939148,73.473946 0 0 0 36.96958,-10.03379 73.939148,73.473946 0 0 0 36.96957,10.03379 73.939148,73.473946 0 0 0 73.93914,-73.47395 73.939148,73.473946 0 0 0 -44.39237,-67.32912 66.545233,66.126552 0 0 0 -66.51634,-64.92398 66.545233,66.126552 0 0 0 -36.90604,11.19041 66.545233,66.126552 0 0 0 -37.03312,-11.19041 z"
       inkscape:label="benign_cloud" />
    <g
       id="g6529"
       transform="translate(-60,-30)"
       inkscape:label="stenography_sample">
      <path
         id="path2915-0"
         style="fill:none;fill-opacity:1;stroke:#000000;stroke-width:7.55906;stroke-opacity:1"
         d="m 477.5,415 h 30 c 0,0 20.63094,-121.99592 45.67596,-0.86481 24.81116,120 43.45923,0 43.45923,0 L 627.5,415 m 0,-50 h -50 v -50 m -100,0 v 200 h 150 V 365 l -50,-50 z" />
      <path
         id="path2890"
         style="fill:none;stroke:#000000;stroke-width:7.559;stroke-dasharray:none;stroke-opacity:1"
         d="m 627.5,466 v 49 H 563.24414 C 542.66902,541.25358 525,555 525,555 l 125,65 c 0,0 23.90061,-8.24097 50,-50 24.99997,-39.99996 25,-65 25,-65 z" />
      <path
         style="fill:none;stroke:#000000;stroke-width:7.559;stroke-dasharray:none;stroke-opacity:1"
         d="m 525,555 h 75 l 15,-25 20,50 15,-25 h 60"
         id="path3005"
         sodipodi:nodetypes="cccccc" />
    </g>
    <path
       id="path3172-6"
       style="fill:none;stroke:#000000;stroke-width:7.559;stroke-dasharray:none;stroke-opacity:1"
       d="m 1265,157.5 c 0,0 -85,-15 -85,-40 m -85,40 c 0,0 85,-15 85,-40 m 0,-75 v 195 m 0,-200 c 0,0 -15,20.000015 -45,35 -30,14.999985 -56.4959,12.631545 -55,15 0,0 -10,40.00006 25,95 35,54.99994 85,55 75,55 -10,0 40,-6e-5 75,-55 35,-54.99994 25,-95 25,-95 1.4959,-2.368455 -25,-1.5e-5 -55,-15 -30,-14.999985 -45,-35 -45,-35 z"
       inkscape:label="benign_model" />
    <g
       id="g6520"
       inkscape:label="guise_benign_model">
      <path
         style="fill:none;stroke:#000000;stroke-width:7.559;stroke-dasharray:none;stroke-opacity:1"
         d="m 800,40 v 200 l 200,50 V 90 Z"
         id="path3099" />
      <path
         id="path3172-6-2"
         style="fill:none;stroke:#000000;stroke-width:6;stroke-dasharray:none;stroke-opacity:1"
         d="m 953.89704,194.65109 c 0,0 -55.5801,-23.70078 -55.5801,-40.04368 m -55.58,12.25365 c 0,0 55.58,4.08925 55.58,-12.25365 m 0,-49.02872 v 127.47467 m 0,-130.74325 c 0,0 -9.8082,10.62229 -29.4247,15.52389 -19.6165,4.9016 -36.9417,-0.97798 -35.9636,0.81485 0,0 -6.5388,24.51399 16.3471,66.18982 22.8859,41.67584 55.5801,49.84942 49.0412,48.21469 -6.5389,-1.63472 26.1553,6.5388 49.0413,-23.69406 22.8858,-30.23291 16.3471,-58.01628 16.3471,-58.01628 0.9781,-1.30378 -16.3471,-4.0868 -35.9636,-18.79665 -19.6166,-14.70987 -29.4248,-30.23626 -29.4248,-30.23626 z" />
    </g>
    <g
       id="g6524"
       inkscape:label="guise_benign_cloud">
      <path
         style="fill:none;stroke:#000000;stroke-width:7.559;stroke-dasharray:none;stroke-opacity:1"
         d="m 800,300 v 200 l 200,50 V 350 Z"
         id="path3099-3" />
      <path
         id="path2565-7"
         style="fill:none;stroke:#000000;stroke-width:6;stroke-dasharray:none;stroke-opacity:1"
         d="m 921.37545,369.69484 c -0.99103,-1.30914 -2.54682,-2.42594 -4.42182,-2.89469 l -11.67576,-2.91894 v 11.75981 c 0,4.64847 4.37845,8.44449 7.29739,6.23428 2.91894,-2.21022 1.45943,-6.98503 1.45943,-6.98503 0,0 4.37845,2.56458 7.29739,0.35438 1.73308,-1.31233 1.49161,-3.63649 0.0433,-5.54983 z m 39.36229,63.91044 11.67576,2.91894 8.75682,11.00907 -11.67576,-2.91894 v 11.7598 l -8.75682,-11.00907 z m -46.70305,-58.71501 55.45987,69.72408 m 11.5389,-44.29235 -58.37881,44.20436 m 61.29775,-40.53467 c 0,0 -29.18941,-36.69688 -58.37881,-14.59471 -29.18932,22.1022 0,58.79905 0,58.79905 0,0 -20.4325,-31.56769 5.83796,-51.45966 26.27038,-19.89196 52.54085,7.25532 52.54085,7.25532 z m -120.21265,21.03555 c -4.128,19.75659 9.90716,26.17579 16.512,29.07432 0,0 15.68641,8.07933 20.64,-13.54975 m 7.43041,-11.03132 a 4.6910855,3.6586574 49.374647 0 1 -4.128,3.12572 4.6910855,3.6586574 49.374647 0 1 -4.128,-5.18972 4.6910855,3.6586574 49.374647 0 1 4.128,-3.12572 4.6910855,3.6586574 49.374647 0 1 4.128,5.18972 z M 872.08672,413.3935 a 4.6910855,3.6586574 49.374647 0 1 -4.128,3.12572 4.6910855,3.6586574 49.374647 0 1 -4.128,-5.18972 4.6910855,3.6586574 49.374647 0 1 4.128,-3.12571 4.6910855,3.6586574 49.374647 0 1 4.128,5.18971 z m -1.55171,-26.15089 a 31.129166,24.261655 48.659832 0 0 -27.43526,20.15146 34.587962,26.957395 48.659837 0 0 -18.34788,23.38989 34.587962,26.957395 48.659837 0 0 30.52209,38.17895 34.587962,26.957395 48.659837 0 0 15.26105,-0.35651 34.587962,26.957395 48.659837 0 0 15.26105,7.98703 34.587962,26.957395 48.659837 0 0 15.26105,-0.35651 34.587962,26.957395 48.659837 0 0 15.26104,7.98703 34.587962,26.957395 48.659837 0 0 30.5221,-22.91789 34.587962,26.957395 48.659837 0 0 -18.32518,-32.57486 31.129166,24.261655 48.659832 0 0 -27.45796,-33.85807 31.129166,24.261655 48.659832 0 0 -15.23484,0.84395 31.129166,24.261655 48.659832 0 0 -15.28726,-8.47447 z" />
    </g>
    <g
       aria-label="!?"
       id="text4098"
       style="font-size:120px;stroke:none;stroke-width:6;stroke-opacity:1"
       transform="translate(-292.8071,346.80694)"
       inkscape:label="being_tricked">
      <path
         id="path4152"
         style="font-weight:bold;-inkscape-font-specification:'sans-serif Bold';stroke:none;stroke-opacity:1"
         d="m 1194.2134,381.04463 q -1.4063,-3.8086 -1.4063,-7.85157 0,-9.90234 9.375,-17.8125 5.8008,-4.92187 7.8516,-8.20312 2.0508,-3.28125 2.0508,-7.08985 0,-4.16015 -2.9297,-6.79687 -2.9297,-2.69531 -7.5586,-2.69531 -10.8399,0 -20.1563,8.32031 v -18.16406 q 9.7852,-5.85938 22.2657,-5.85938 12.6562,0 19.9804,5.85938 7.3242,5.85937 7.3242,16.69922 0,6.5039 -2.871,11.77734 -2.8711,5.27344 -10.5469,11.54297 -6.1524,5.15625 -7.6172,8.02734 -1.4649,2.8711 -1.4649,6.09375 0,3.16406 1.5821,6.15235 z m -2.4024,17.46093 q 0,-4.33593 3.2813,-7.14843 3.2812,-2.8711 7.9687,-2.8711 4.5117,0 7.7344,2.8711 3.2813,2.8125 3.2813,7.14843 0,4.27735 -3.0469,7.20703 -3.0469,2.8711 -7.3242,2.8711 -5.4493,0 -8.6719,-2.98828 -3.2227,-2.98828 -3.2227,-7.08985 z m -25.8984,-82.08984 -2.3438,62.8125 h -15.3515 l -2.2266,-62.8125 z m -20.9766,82.08984 q 0,-4.39453 3.2227,-7.20703 3.2226,-2.8125 7.9101,-2.8125 4.7461,0 7.8516,2.8711 3.1641,2.8125 3.1641,7.14843 0,4.21875 -3.0469,7.14844 -3.0469,2.92969 -7.3242,2.92969 -5.3907,0 -8.6133,-2.92969 -3.1641,-2.92969 -3.1641,-7.14844 z m -30.0975,-95.56076 v 115.79297 h 39.3652 l -19.5527,19.49414 42.0315,8.00856 -25.8483,16.31522 37.7729,9.01838 -44.792,46.23987 69.7661,-49.92847 -26.2652,-11.333 29.3189,-19.21487 -28.6733,-6.80209 13.1224,-11.46113 52.4361,-0.33661 V 302.9448 Z" />
    </g>
    <path
       id="path3172-6-25"
       style="fill:none;stroke:#000000;stroke-width:7.559;stroke-dasharray:none;stroke-opacity:1"
       d="m 1524.524,157.61984 c 0,0 -85,-15 -85,-40 m -85,40 c 0,0 85,-15 85,-40 m 0,-75.000005 V 237.61984 m -6e-4,-200.000699 c 0,0 -15,20.000045 -45,35 -29.9998,14.999955 -56.4959,12.631549 -55,15 0,0 -9.9998,40.000179 25,94.999999 0.2391,0.37567 0.4843,0.72712 0.7246,1.09766 l 31.9082,-12.82032 c 0,0 -13.6373,11.12249 -23.4707,24.5293 3.4937,4.35988 7.0578,8.27477 10.6348,11.77734 4.8072,-9.06981 8.5508,-17.74218 8.5508,-17.74218 l 20.9453,3.33203 -9.9961,13.33008 c 0,0 26.6578,-16.18614 22.8496,-6.18946 -1.738,4.56226 -9.0423,15.75923 -16.4551,26.59375 14.5134,7.95748 26.1449,10.15053 29.3086,10.76172 6.2614,-1.2096 45.6702,-8.58009 75,-54.66992 11.6883,-18.36719 18.3415,-35.04625 22.0411,-49.13672 l -6.5957,-7.81054 c 0,-1e-5 -11.9017,7.61813 -9.5215,-9.04297 2.3801,-16.661115 -45.2227,8.56836 -45.2227,8.56836 l 23.3262,-24.75391 c 0,0 -23.6518,-3.815569 -0.6211,-22.123048 -4.3353,-1.560347 -8.8196,-3.407858 -13.4063,-5.701171 -29.9998,-14.999955 -45,-35 -45,-35 z m 0,199.669919 c -1.2104,0.23384 -1.62,0.33008 0,0.33008 1.62,0 1.2105,-0.0962 0,-0.33008 z"
       inkscape:label="adversarial_service" />
    <g
       id="g6515"
       transform="translate(255,-270)"
       inkscape:label="stenography_model">
      <path
         id="path2915-2"
         style="fill:none;fill-opacity:1;stroke:#000000;stroke-width:7.55906;stroke-opacity:1"
         d="m 1331.3394,414.02525 h 30 c 0,0 20.631,-121.99592 45.676,-0.86481 24.8111,120 43.4592,0 43.4592,0 l 30.8648,0.86481 m 0,-50 h -50 v -50 m -100,0 v 200 h 150 v -150 l -50,-50 z" />
      <g
         id="g6509">
        <path
           style="fill:#ffffff;fill-opacity:1;stroke:none;stroke-width:7;stroke-dasharray:none;stroke-opacity:1"
           d="m 1505,430 -50,30 50,35 z"
           id="path6498" />
        <path
           id="path6496"
           style="fill:none;fill-opacity:1;stroke:#000000;stroke-width:7;stroke-dasharray:none;stroke-opacity:1"
           d="m 1535.7698,310.74145 -31.4356,59.71484 c 0,0 -10.7372,29.26312 15.6658,34.54371 25,5 65,5 50,20 -12.982,12.98201 -50,20 -65,25 v -20 l -50,30 50,35 v -20 c 20,-10 53.9232,-16.9616 80,-30 40,-20 5,-50 5,-50 l 24.3596,-54.40113 -15.7168,-29.85742 z M 1509.553,360 h 18.8617 l 28.2927,-29.85728 v 59.71456 L 1585,360 h 18.8617 m 11.8564,-20 h -31.4362 L 1600,310.14271" />
      </g>
    </g>
    <g
       id="g1906"
       inkscape:label="extraction_model">
      <path
         id="path2915-1"
         style="fill:none;fill-opacity:1;stroke:#000000;stroke-width:7.55906;stroke-opacity:1"
         d="m 1120.8648,420.86481 h 30 c 0,0 20.631,-121.99592 45.676,-0.86481 24.8112,120 43.4592,0 43.4592,0 l 30.8648,0.86481 m 0,-50 h -50 v -50 m -100,0 v 200 h 150 v -150 l -50,-50 z" />
      <circle
         style="fill:#ffffff;fill-opacity:1;stroke:#000000;stroke-width:7.55906;stroke-dasharray:none;stroke-opacity:1"
         id="path1040"
         cx="1224.8319"
         cy="498.40613"
         r="63.312336" />
      <rect
         style="fill:#ffffff;fill-opacity:1;stroke:#000000;stroke-width:7.55906;stroke-dasharray:none;stroke-opacity:1"
         id="rect1042"
         width="76.641251"
         height="28.561956"
         x="1282.3525"
         y="-527.1001"
         transform="rotate(45)" />
      <path
         style="fill:none;fill-opacity:1;stroke:#000000;stroke-width:7.93700808;stroke-opacity:1;stroke-dasharray:none"
         d="m 1162.5,498.96188 h 24.7 l 16.4667,-41.16667 41.1666,82.33333 16.4667,-41.16666 h 24.7"
         id="path2911-5" />
    </g>
  </g>
</svg>
