<?xml version="1.0" encoding="UTF-8" standalone="no"?>
<!-- Created with Inkscape (http://www.inkscape.org/) -->

<svg
   width="1920px"
   height="1080px"
   viewBox="0 0 1920 1080"
   version="1.1"
   id="SVGRoot"
   sodipodi:docname="draw1.svg"
   inkscape:version="1.2.2 (b0a8486541, 2022-12-01)"
   xmlns:inkscape="http://www.inkscape.org/namespaces/inkscape"
   xmlns:sodipodi="http://sodipodi.sourceforge.net/DTD/sodipodi-0.dtd"
   xmlns="http://www.w3.org/2000/svg"
   xmlns:svg="http://www.w3.org/2000/svg">
  <sodipodi:namedview
     id="namedview1595"
     pagecolor="#ffffff"
     bordercolor="#000000"
     borderopacity="0.25"
     inkscape:showpageshadow="2"
     inkscape:pageopacity="0.0"
     inkscape:pagecheckerboard="0"
     inkscape:deskcolor="#d1d1d1"
     inkscape:document-units="px"
     showgrid="true"
     inkscape:zoom="1"
     inkscape:cx="512"
     inkscape:cy="257"
     inkscape:window-width="790"
     inkscape:window-height="791"
     inkscape:window-x="0"
     inkscape:window-y="0"
     inkscape:window-maximized="0"
     inkscape:current-layer="layer1">
    <inkscape:grid
       type="xygrid"
       id="grid1605" />
  </sodipodi:namedview>
  <defs
     id="defs1590" />
  <g
     inkscape:label="图层 1"
     inkscape:groupmode="layer"
     id="layer1">
    <path
       id="path2178"
       style="fill:none;fill-opacity:1;stroke:#000000;stroke-width:7.55906;stroke-opacity:1"
       d="M 100 0 A 60 60 0 0 0 40 60 A 60 60 0 0 0 63.111328 107.14258 A 100 100 0 0 0 0 200 L 200 200 A 100 100 0 0 0 136.94922 107.09961 A 60 60 0 0 0 160 60 A 60 60 0 0 0 100 0 z " />
    <path
       id="path2205"
       style="fill:#000000;fill-opacity:1;stroke:none;stroke-width:7.55906"
       d="m 250.71094,29.289062 -7.07227,7.072266 A 90,90 0 0 1 270,100 90,90 0 0 1 243.63867,163.63867 l 6.89258,6.89258 A 100,100 0 0 0 280,100 100,100 0 0 0 250.71094,29.289062 Z m -14.16406,14.164063 -7.07032,7.070313 A 70,70 0 0 1 250,100 70,70 0 0 1 229.30859,149.30859 l 7.25977,7.25977 A 80,80 0 0 0 260,100 80,80 0 0 0 236.54688,43.453125 Z m -14.14063,14.140625 -7.07227,7.072266 A 50,50 0 0 1 230,100 50,50 0 0 1 215.35547,135.35547 l 6.91015,6.91015 A 60,60 0 0 0 240,100 60,60 0 0 0 222.40625,57.59375 Z m -14.12109,14.121094 -7.07227,7.072265 A 30,30 0 0 1 210,100 a 30,30 0 0 1 -8.78711,21.21289 l 6.89258,6.89258 A 40,40 0 0 0 220,100 40,40 0 0 0 208.28516,71.714844 Z" />
    <path
       id="path2863"
       style="fill:none;fill-opacity:1;stroke:#000000;stroke-width:7.55906;stroke-opacity:1"
       d="M 450,50 H 400 V 0 M 300,0 V 200 H 450 V 50 L 400,0 Z" />
    <path
       id="path2863-3"
       style="fill:none;fill-opacity:1;stroke:#000000;stroke-width:7.55906;stroke-opacity:1"
       d="M 650,50 H 600 V 0 M 500,0 V 200 H 650 V 50 L 600,0 Z" />
    <path
       style="fill:none;fill-opacity:1;stroke:#000000;stroke-width:7.55906;stroke-opacity:1"
       d="m 300,100 h 30 l 20,-50 50,100 20,-50 h 30"
       id="path2911" />
    <path
       style="fill:none;fill-opacity:1;stroke:#000000;stroke-width:7.55906;stroke-opacity:1"
       d="m 500,100 h 30 c 0,0 20.63094,-121.995921 45.67596,-0.864807 24.81116,119.999997 43.45923,0 43.45923,0 L 650,100"
       id="path2915"
       sodipodi:nodetypes="ccscc" />
    <path
       id="path2917"
       style="fill:none;fill-opacity:1;stroke:#000000;stroke-width:7.559;stroke-dasharray:none;stroke-opacity:1"
       d="m 209.5445,305.07602 a 66.545233,66.126552 0 0 0 -66.46147,64.96416 73.939148,73.473946 0 0 0 -44.447248,67.28894 73.939148,73.473946 0 0 0 73.939148,73.47395 73.939148,73.473946 0 0 0 36.96957,-10.03379 73.939148,73.473946 0 0 0 36.96958,10.03379 73.939148,73.473946 0 0 0 36.96958,-10.03379 73.939148,73.473946 0 0 0 36.96957,10.03379 73.939148,73.473946 0 0 0 73.93914,-73.47395 A 73.939148,73.473946 0 0 0 350,370 66.545233,66.126552 0 0 0 283.48366,305.07602 66.545233,66.126552 0 0 0 246.57762,316.26643 66.545233,66.126552 0 0 0 209.5445,305.07602 Z" />
    <path
       id="path2917-6"
       style="fill:none;fill-opacity:1;stroke:#000000;stroke-width:7.559;stroke-dasharray:none;stroke-opacity:1"
       d="M 576.46147,305.03584 A 66.545233,66.126552 0 0 0 510,370 a 73.939148,73.473946 0 0 0 -44.44725,67.28894 73.939148,73.473946 0 0 0 73.93915,73.47395 73.939148,73.473946 0 0 0 36.96957,-10.03379 73.939148,73.473946 0 0 0 36.96958,10.03379 73.939148,73.473946 0 0 0 36.96958,-10.03379 73.939148,73.473946 0 0 0 36.96957,10.03379 73.939148,73.473946 0 0 0 73.93914,-73.47395 73.939148,73.473946 0 0 0 -44.39237,-67.32912 66.545233,66.126552 0 0 0 -66.51634,-64.92398 66.545233,66.126552 0 0 0 -36.90604,11.19041 66.545233,66.126552 0 0 0 -37.03312,-11.19041 z" />
    <path
       style="fill:none;fill-opacity:1;stroke:#000000;stroke-width:7.559;stroke-dasharray:none;stroke-opacity:1"
       d="m 170,320 c -50,-10 -10,-60 -10,-60 0,0 -50,18.37722 -50,50 0,40 40,40 40,40"
       id="path3470"
       sodipodi:nodetypes="ccsc" />
    <path
       style="fill:none;fill-opacity:1;stroke:#000000;stroke-width:7.559;stroke-dasharray:none;stroke-opacity:1"
       d="m 328,320 c 50,-10 10,-60 10,-60 0,0 50,18.37722 50,50 0,40 -40,40 -40,40"
       id="path3470-5"
       sodipodi:nodetypes="ccsc" />
    <path
       style="fill:none;fill-opacity:1;stroke:#000000;stroke-width:7.559;stroke-dasharray:none;stroke-opacity:1"
       d="m 180,350 50,50 h -40 z"
       id="path3499" />
    <path
       style="fill:none;fill-opacity:1;stroke:#000000;stroke-width:7.559;stroke-dasharray:none;stroke-opacity:1"
       d="m 310,350 -10,50 h -40 z"
       id="path3505" />
    <circle
       style="fill:#000000;fill-opacity:1;stroke:none;stroke-width:7.559;stroke-dasharray:none;stroke-opacity:1"
       id="path3507"
       cx="566.22052"
       cy="360"
       r="10" />
    <circle
       style="fill:#000000;fill-opacity:1;stroke:none;stroke-width:7.559;stroke-dasharray:none;stroke-opacity:1"
       id="path3509"
       cx="650"
       cy="380"
       r="10" />
    <path
       style="fill:none;fill-opacity:1;stroke:#000000;stroke-width:7.559;stroke-dasharray:none;stroke-opacity:1"
       d="m 560,400 c -10,50 20,60 40,60 0,0 50,-5 50,-45"
       id="path3511"
       sodipodi:nodetypes="ccc" />
  </g>
</svg>
