<?xml version="1.0" encoding="UTF-8" standalone="no"?>
<!-- Created with Inkscape (http://www.inkscape.org/) -->

<svg
   width="2000px"
   height="2000px"
   viewBox="0 0 2000 2000"
   version="1.1"
   id="SVGRoot"
   sodipodi:docname="method.svg"
   xml:space="preserve"
   inkscape:version="1.2.2 (b0a8486541, 2022-12-01)"
   inkscape:export-filename="method.png"
   inkscape:export-xdpi="96"
   inkscape:export-ydpi="96"
   xmlns:inkscape="http://www.inkscape.org/namespaces/inkscape"
   xmlns:sodipodi="http://sodipodi.sourceforge.net/DTD/sodipodi-0.dtd"
   xmlns="http://www.w3.org/2000/svg"
   xmlns:svg="http://www.w3.org/2000/svg"><sodipodi:namedview
     id="namedview539"
     pagecolor="#ffffff"
     bordercolor="#000000"
     borderopacity="0.25"
     inkscape:showpageshadow="2"
     inkscape:pageopacity="0.0"
     inkscape:pagecheckerboard="0"
     inkscape:deskcolor="#d1d1d1"
     inkscape:document-units="px"
     showgrid="false"
     inkscape:zoom="0.38083965"
     inkscape:cx="366.29589"
     inkscape:cy="803.48777"
     inkscape:window-width="1536"
     inkscape:window-height="791"
     inkscape:window-x="0"
     inkscape:window-y="0"
     inkscape:window-maximized="1"
     inkscape:current-layer="layer1" /><defs
     id="defs534" /><g
     inkscape:label="图层 1"
     inkscape:groupmode="layer"
     id="layer1"><text
       xml:space="preserve"
       style="font-weight:500;font-size:64px;font-family:'Noto Sans';-inkscape-font-specification:'Noto Sans Medium';fill:#000000;fill-opacity:1;stroke:none;stroke-width:7.93701;stroke-opacity:1"
       x="1774.5453"
       y="1127.7795"
       id="text4276-60-8-5"><tspan
         sodipodi:role="line"
         x="1774.5453"
         y="1127.7795"
         style="font-size:64px;text-align:center;text-anchor:middle"
         id="tspan4502-1">Similar</tspan></text><text
       xml:space="preserve"
       style="font-weight:500;font-size:64px;font-family:'Noto Sans';-inkscape-font-specification:'Noto Sans Medium';fill:#000000;fill-opacity:1;stroke:none;stroke-width:7.93701;stroke-opacity:1"
       x="325.0043"
       y="784.99371"
       id="text4276-60-8-5-9"><tspan
         sodipodi:role="line"
         x="325.0043"
         y="784.99371"
         style="font-size:64px;text-align:center;text-anchor:middle"
         id="tspan4502-1-4">Similar</tspan></text><text
       xml:space="preserve"
       style="font-weight:500;font-size:64px;font-family:'Noto Sans';-inkscape-font-specification:'Noto Sans Medium';fill:#000000;fill-opacity:1;stroke:none;stroke-width:7.93701;stroke-opacity:1"
       x="1079.2313"
       y="1116.2273"
       id="text4276-6"><tspan
         sodipodi:role="line"
         x="1079.2313"
         y="1116.2273"
         style="font-size:64px;text-align:center;text-anchor:middle"
         id="tspan4332-6">Stenography</tspan><tspan
         sodipodi:role="line"
         x="1079.2313"
         y="1196.2273"
         style="font-size:64px;text-align:center;text-anchor:middle"
         id="tspan4460">Model</tspan></text><text
       xml:space="preserve"
       style="font-weight:500;font-size:64px;font-family:'Noto Sans';-inkscape-font-specification:'Noto Sans Medium';fill:#000000;fill-opacity:1;stroke:none;stroke-width:7.93701;stroke-opacity:1"
       x="1154.1954"
       y="1758.5443"
       id="text4276-4"><tspan
         sodipodi:role="line"
         x="1154.1954"
         y="1758.5443"
         style="font-size:64px;text-align:center;text-anchor:middle"
         id="tspan4332-9">Stenography</tspan><tspan
         sodipodi:role="line"
         x="1154.1954"
         y="1838.5443"
         style="font-size:64px;text-align:center;text-anchor:middle"
         id="tspan4464">Voice</tspan></text><text
       xml:space="preserve"
       style="font-weight:500;font-size:64px;font-family:'Noto Sans';-inkscape-font-specification:'Noto Sans Medium';fill:#000000;fill-opacity:1;stroke:none;stroke-width:7.93701;stroke-opacity:1"
       x="603.49042"
       y="1750.5443"
       id="text4276-60"><tspan
         sodipodi:role="line"
         x="603.49042"
         y="1750.5443"
         style="font-size:64px;text-align:center;text-anchor:middle"
         id="tspan4332-67">Extraction</tspan><tspan
         sodipodi:role="line"
         x="603.49042"
         y="1830.5443"
         style="font-size:64px;text-align:center;text-anchor:middle"
         id="tspan4468">Model</tspan></text><text
       xml:space="preserve"
       style="font-weight:500;font-size:64px;font-family:'Noto Sans';-inkscape-font-specification:'Noto Sans Medium';fill:#000000;fill-opacity:1;stroke:none;stroke-width:7.93701;stroke-opacity:1"
       x="212.2079"
       y="1179.8433"
       id="text4276-60-8"><tspan
         sodipodi:role="line"
         x="212.2079"
         y="1179.8433"
         style="font-size:64px;text-align:center;text-anchor:middle"
         id="tspan4332-67-0">Extraction</tspan><tspan
         sodipodi:role="line"
         x="212.2079"
         y="1259.8433"
         style="font-size:64px;text-align:center;text-anchor:middle"
         id="tspan4502">Speech</tspan></text><text
       xml:space="preserve"
       style="font-weight:500;font-size:64px;font-family:'Noto Sans';-inkscape-font-specification:'Noto Sans Medium';fill:#000000;fill-opacity:1;stroke:none;stroke-width:7.93701;stroke-opacity:1"
       x="905.33105"
       y="530.40698"
       id="text4276-9"><tspan
         sodipodi:role="line"
         x="905.33105"
         y="530.40698"
         style="font-size:64px;text-align:center;text-anchor:middle"
         id="tspan4332-4">Benign</tspan><tspan
         sodipodi:role="line"
         x="905.33105"
         y="610.40698"
         style="font-size:64px;text-align:center;text-anchor:middle"
         id="tspan4452">Model</tspan></text><text
       xml:space="preserve"
       style="font-weight:500;font-size:64px;font-family:'Noto Sans';-inkscape-font-specification:'Noto Sans Medium';fill:#000000;fill-opacity:1;stroke:none;stroke-width:7.93701;stroke-opacity:1"
       x="1517.1521"
       y="506.27832"
       id="text4276-95"><tspan
         sodipodi:role="line"
         x="1517.1521"
         y="506.27832"
         style="font-size:64px;text-align:center;text-anchor:middle"
         id="tspan4332-0">Desensitized</tspan><tspan
         sodipodi:role="line"
         x="1517.1521"
         y="586.27832"
         style="font-size:64px;text-align:center;text-anchor:middle"
         id="tspan4456">Voice</tspan></text><path
       style="fill:none;stroke:#000000;stroke-width:7.93701;stroke-opacity:1"
       d="m 828.8,1430.0594 -70.95722,70.9572 73.76342,73.1561"
       id="path4133-5" /><path
       style="fill:none;stroke:#000000;stroke-width:7.93701;stroke-opacity:1"
       d="m 136.47923,1369.258 70.9572,-70.9572 73.1561,73.7634"
       id="path4133-8" /><path
       style="fill:none;stroke:#000000;stroke-width:7.93701;stroke-opacity:1"
       d="m 1180.8787,1273.297 -70.9572,70.9572 -73.1561,-73.7634"
       id="path4133-30" /><path
       style="fill:none;stroke:#000000;stroke-width:7.93701;stroke-opacity:1"
       d="m 833.63782,818.27763 70.95724,70.95724 -73.7634,73.15602"
       id="path4133-4" /><path
       style="fill:none;stroke:#000000;stroke-width:7.93701;stroke-opacity:1"
       d="m 1362.2954,822.24613 -70.9572,70.95724 73.7634,73.15602"
       id="path4133-47" /><path
       id="path3172-6"
       style="fill:none;stroke:#000000;stroke-width:7.559;stroke-dasharray:none;stroke-opacity:1"
       d="m 980.38992,338.97628 c 0,0 -85,-15 -85,-40 m -85,40 c 0,0 85,-15 85,-40 m 0,-75 v 195 m 0,-200 c 0,0 -15,20.00001 -45,35 -30,14.99998 -56.4958,12.63154 -55,15 0,0 -10,40.00006 25,95 35,54.99994 85,55 75,55 -10,0 40,-6e-5 75,-55 34.99998,-54.99994 25,-95 25,-95 1.4959,-2.36846 -25,-2e-5 -55,-15 -30,-14.99999 -45,-35 -45,-35 z"
       inkscape:label="benign_model" /><g
       id="g6515"
       transform="translate(-370.07849,459.23487)"
       inkscape:label="stenography_model"><path
         id="path2915-2"
         style="fill:none;fill-opacity:1;stroke:#000000;stroke-width:7.55906;stroke-opacity:1"
         d="m 1331.3394,414.02525 h 30 c 0,0 20.631,-121.99592 45.676,-0.86481 24.8111,120 43.4592,0 43.4592,0 l 30.8648,0.86481 m 0,-50 h -50 v -50 m -100,0 v 200 h 150 v -150 l -50,-50 z" /><g
         id="g6509"><path
           style="fill:#ffffff;fill-opacity:1;stroke:none;stroke-width:7;stroke-dasharray:none;stroke-opacity:1"
           d="m 1505,430 -50,30 50,35 z"
           id="path6498" /><path
           id="path6496"
           style="fill:none;fill-opacity:1;stroke:#000000;stroke-width:7;stroke-dasharray:none;stroke-opacity:1"
           d="m 1535.7698,310.74145 -31.4356,59.71484 c 0,0 -10.7372,29.26312 15.6658,34.54371 25,5 65,5 50,20 -12.982,12.98201 -50,20 -65,25 v -20 l -50,30 50,35 v -20 c 20,-10 53.9232,-16.9616 80,-30 40,-20 5,-50 5,-50 l 24.3596,-54.40113 -15.7168,-29.85742 z M 1509.553,360 h 18.8617 l 28.2927,-29.85728 v 59.71456 L 1585,360 h 18.8617 m 11.8564,-20 h -31.4362 L 1600,310.14271" /></g></g><g
       id="g6529"
       transform="translate(562.08337,1057.915)"
       inkscape:label="stenography_sample"><path
         id="path2915-0"
         style="fill:none;fill-opacity:1;stroke:#000000;stroke-width:7.55906;stroke-opacity:1"
         d="m 477.5,415 h 30 c 0,0 20.63094,-121.99592 45.67596,-0.86481 24.81116,120 43.45923,0 43.45923,0 L 627.5,415 m 0,-50 h -50 v -50 m -100,0 v 200 h 150 V 365 l -50,-50 z" /><path
         id="path2890"
         style="fill:none;stroke:#000000;stroke-width:7.559;stroke-dasharray:none;stroke-opacity:1"
         d="m 627.5,466 v 49 H 563.24414 C 542.66902,541.25358 525,555 525,555 l 125,65 c 0,0 23.90061,-8.24097 50,-50 24.99997,-39.99996 25,-65 25,-65 z" /><path
         style="fill:none;stroke:#000000;stroke-width:7.559;stroke-dasharray:none;stroke-opacity:1"
         d="m 525,555 h 75 l 15,-25 20,50 15,-25 h 60"
         id="path3005"
         sodipodi:nodetypes="cccccc" /></g><g
       id="g1906"
       inkscape:label="extraction_model"
       transform="translate(-621.49555,1052.9004)"><path
         id="path2915-1"
         style="fill:none;fill-opacity:1;stroke:#000000;stroke-width:7.55906;stroke-opacity:1"
         d="m 1120.8648,420.86481 h 30 c 0,0 20.631,-121.99592 45.676,-0.86481 24.8112,120 43.4592,0 43.4592,0 l 30.8648,0.86481 m 0,-50 h -50 v -50 m -100,0 v 200 h 150 v -150 l -50,-50 z" /><circle
         style="fill:#ffffff;fill-opacity:1;stroke:#000000;stroke-width:7.55906;stroke-dasharray:none;stroke-opacity:1"
         id="path1040"
         cx="1224.8319"
         cy="498.40613"
         r="63.312336" /><rect
         style="fill:#ffffff;fill-opacity:1;stroke:#000000;stroke-width:7.55906;stroke-dasharray:none;stroke-opacity:1"
         id="rect1042"
         width="76.641251"
         height="28.561956"
         x="1282.3525"
         y="-527.1001"
         transform="rotate(45)" /><path
         style="fill:none;fill-opacity:1;stroke:#000000;stroke-width:7.93701;stroke-dasharray:none;stroke-opacity:1"
         d="m 1162.5,498.96188 h 24.7 l 16.4667,-41.16667 41.1666,82.33333 16.4667,-41.16666 h 24.7"
         id="path2911-5" /></g><path
       style="fill:none;stroke:#000000;stroke-width:7.93701;stroke-opacity:1"
       d="m 332.52544,317.71903 409.84922,-0.0387"
       id="path4019"
       sodipodi:nodetypes="cc" /><path
       style="fill:none;stroke:#000000;stroke-width:7.93701;stroke-opacity:1"
       d="M 904.59506,889.23487 H 538.44438 l 5.57011,-571.51584"
       id="path4021"
       sodipodi:nodetypes="ccc" /><path
       style="fill:none;stroke:#000000;stroke-width:7.93701;stroke-opacity:1"
       d="m 1084.9215,317.68035 283.8771,0.0387"
       id="path4023"
       sodipodi:nodetypes="cc" /><path
       style="fill:none;stroke:#000000;stroke-width:7.93701;stroke-opacity:1"
       d="m 1291.3382,893.20337 221.1094,0 V 637.77808"
       id="path4027"
       sodipodi:nodetypes="ccc" /><path
       style="fill:none;stroke:#000000;stroke-width:7.93701;stroke-opacity:1"
       d="m 1109.9215,1252.3474 v 91.9068"
       id="path4031" /><path
       style="fill:none;stroke:#000000;stroke-width:7.93701;stroke-opacity:1"
       d="M 967.60708,1501.0166 H 757.84278"
       id="path4033"
       sodipodi:nodetypes="cc" /><path
       style="fill:none;stroke:#000000;stroke-width:7.93701;stroke-opacity:1"
       d="m 207.43643,1298.3008 v 202.7158 l 219.7989,0"
       id="path4035"
       sodipodi:nodetypes="ccc" /><path
       style="fill:none;stroke:#000000;stroke-width:7.93701;stroke-opacity:1"
       d="m 671.41742,246.72309 70.95724,70.95724 -73.7634,73.15602"
       id="path4133" /><path
       style="fill:none;stroke:#000000;stroke-width:7.93701;stroke-opacity:1"
       d="m 1297.8413,246.76181 70.9573,70.95724 -73.7634,73.15602"
       id="path4133-3" /><text
       xml:space="preserve"
       style="font-weight:500;font-size:64px;font-family:'Noto Sans';-inkscape-font-specification:'Noto Sans Medium';fill:#000000;fill-opacity:1;stroke:none;stroke-width:7.93701;stroke-opacity:1"
       x="208.17241"
       y="530.40698"
       id="text4276"><tspan
         sodipodi:role="line"
         x="208.17241"
         y="530.40698"
         style="font-size:64px;text-align:center;text-anchor:middle"
         id="tspan4328">Original</tspan><tspan
         sodipodi:role="line"
         x="208.17241"
         y="610.40698"
         style="font-size:64px;text-align:center;text-anchor:middle"
         id="tspan4332">Speech</tspan></text><path
       style="fill:none;fill-opacity:1;stroke:#000000;stroke-width:7.93701;stroke-opacity:1"
       d="m 195.88235,660.05854 c -43.63256,90.97853 -6.49847,215.37775 -6.49847,215.37775"
       id="path4506" /><path
       style="fill:none;fill-opacity:1;stroke:#000000;stroke-width:7.93701;stroke-opacity:1"
       d="m 155.03485,691.62252 40.8475,-31.56398 23.20881,46.41762"
       id="path4508" /><path
       style="fill:none;fill-opacity:1;stroke:#000000;stroke-width:7.93701;stroke-opacity:1"
       d="m 152.60832,848.51407 36.77556,26.92222 25.06552,-39.91915"
       id="path4510" /><path
       style="fill:none;fill-opacity:1;stroke:#000000;stroke-width:7.93701;stroke-opacity:1"
       d="m 1353.5881,1551.3065 c 409.6212,-329.0073 288.8354,-952.62933 288.8354,-952.62933"
       id="path4512" /><path
       style="fill:none;fill-opacity:1;stroke:#000000;stroke-width:7.93701;stroke-opacity:1"
       d="m 1614.8529,647.25404 27.5706,-48.57687 48.5769,26.25777"
       id="path4514" /><path
       style="fill:none;fill-opacity:1;stroke:#000000;stroke-width:7.93701;stroke-opacity:1"
       d="m 1367.8961,1484.2147 -14.308,67.0918 80.0862,-8.6625"
       id="path4516" /><rect
       style="fill:none;stroke:#000000;stroke-width:7.60155;stroke-dasharray:7.60155, 7.60155;stroke-dashoffset:0;stroke-opacity:1"
       id="rect225"
       width="1300.2932"
       height="900.203"
       x="475.28687"
       y="128.68431" /></g><path
     id="path2911"
     style="fill:none;fill-opacity:1;stroke:#000000;stroke-width:7.55906;stroke-opacity:1"
     d="m 132.43643,317.71903 h 30 l 20,-50 50,100 20,-50 h 30 m 0,-50 h -50 v -50 m -100,0 v 200 h 150 v -150 l -50,-50 z"
     inkscape:label="original_sample" /><path
     id="path2911-3"
     style="fill:none;fill-opacity:1;stroke:#000000;stroke-width:7.55906;stroke-opacity:1"
     d="m 132.43643,1000 h 30 l 20,-50 50,100 20,-50 h 30 m 0,-50 h -50 v -50 m -100,0 v 200 h 150 V 950 l -50,-50 z"
     inkscape:label="original_sample" /><path
     id="path2915"
     style="fill:none;fill-opacity:1;stroke:#000000;stroke-width:7.55906;stroke-opacity:1"
     d="m 1437.4476,317.71903 h 30 c 0,0 20.6309,-121.99592 45.676,-0.86481 24.8111,120 43.4592,0 43.4592,0 l 30.8648,0.86481 m 0,-50 h -50 v -50 m -100,0 v 200 h 150 v -150 l -50,-50 z"
     inkscape:label="desensitized_sample" /></svg>
