<?xml version="1.0" encoding="UTF-8" standalone="no"?>
<!-- Created with Inkscape (http://www.inkscape.org/) -->

<svg
   width="2000px"
   height="800px"
   viewBox="0 0 2000 800"
   version="1.1"
   id="SVGRoot"
   sodipodi:docname="case3.svg"
   inkscape:version="1.2.2 (b0a8486541, 2022-12-01)"
   inkscape:export-filename="case3.png"
   inkscape:export-xdpi="96"
   inkscape:export-ydpi="96"
   xmlns:inkscape="http://www.inkscape.org/namespaces/inkscape"
   xmlns:sodipodi="http://sodipodi.sourceforge.net/DTD/sodipodi-0.dtd"
   xmlns="http://www.w3.org/2000/svg"
   xmlns:svg="http://www.w3.org/2000/svg">
  <sodipodi:namedview
     id="namedview3039"
     pagecolor="#ffffff"
     bordercolor="#000000"
     borderopacity="0.25"
     inkscape:showpageshadow="2"
     inkscape:pageopacity="0.0"
     inkscape:pagecheckerboard="0"
     inkscape:deskcolor="#d1d1d1"
     inkscape:document-units="px"
     showgrid="false"
     inkscape:zoom="0.505"
     inkscape:cx="555.44554"
     inkscape:cy="564.35644"
     inkscape:window-width="768"
     inkscape:window-height="787"
     inkscape:window-x="0"
     inkscape:window-y="0"
     inkscape:window-maximized="0"
     inkscape:current-layer="layer1" />
  <defs
     id="defs3034" />
  <g
     inkscape:label="图层 1"
     inkscape:groupmode="layer"
     id="layer1">
    <text
       xml:space="preserve"
       style="font-style:normal;font-variant:normal;font-weight:500;font-stretch:normal;font-size:74.6667px;font-family:'Noto Sans';-inkscape-font-specification:'Noto Sans Medium';fill:#000000;fill-opacity:1;stroke:none;stroke-width:7.93701;stroke-opacity:1"
       x="359.56888"
       y="333.50894"
       id="text5818-6"><tspan
         sodipodi:role="line"
         id="tspan5816-0"
         x="359.56888"
         y="333.50894">&quot;You are covered!&quot;</tspan></text>
    <path
       style="fill:none;stroke:#000000;stroke-width:6.23978;stroke-opacity:1"
       d="m 284.52109,486.7173 251.04482,0.82282"
       id="path4019"
       sodipodi:nodetypes="cc" />
    <path
       style="fill:none;stroke:#000000;stroke-width:7.93701;stroke-opacity:1"
       d="m 464.60871,416.58288 70.9572,70.95724 -73.7634,73.15602"
       id="path4133" />
    <path
       style="fill:none;stroke:#000000;stroke-width:6.23978;stroke-opacity:1"
       d="m 831.66502,486.7173 251.04488,0.82282"
       id="path4019-5"
       sodipodi:nodetypes="cc" />
    <path
       style="fill:none;stroke:#000000;stroke-width:7.93701;stroke-opacity:1"
       d="m 1011.7527,416.58288 70.9572,70.95724 -73.7634,73.15602"
       id="path4133-9" />
    <path
       style="fill:none;stroke:#000000;stroke-width:6.23978;stroke-opacity:1"
       d="m 1354.6013,486.7173 251.0448,0.82282"
       id="path4019-6"
       sodipodi:nodetypes="cc" />
    <path
       style="fill:none;stroke:#000000;stroke-width:7.93701;stroke-opacity:1"
       d="m 1534.6889,416.58288 70.9572,70.95724 -73.7634,73.15602"
       id="path4133-8" />
    <g
       id="g1911"
       inkscape:label="poor_old_user"
       style="fill:#009916;fill-opacity:1;stroke:none;stroke-opacity:1"
       transform="translate(-5.7904,83.76237)">
      <path
         id="path2178"
         style="fill:#009916;fill-opacity:1;stroke:none;stroke-width:7.55906;stroke-opacity:1"
         d="m 160,40 a 60,60 0 0 0 -60,60 60,60 0 0 0 23.11133,47.14258 A 100,100 0 0 0 60,240 H 260 A 100,100 0 0 0 196.94922,147.09961 60,60 0 0 0 220,100 60,60 0 0 0 160,40 Z" />
      <path
         id="path2205"
         style="fill:#009916;fill-opacity:1;stroke:none;stroke-width:7.55906;stroke-opacity:1"
         d="m 310.71094,69.289062 -7.07227,7.072266 A 90,90 0 0 1 330,140 90,90 0 0 1 303.63867,203.63867 l 6.89258,6.89258 A 100,100 0 0 0 340,140 100,100 0 0 0 310.71094,69.289062 Z m -14.16406,14.164063 -7.07032,7.070313 A 70,70 0 0 1 310,140 70,70 0 0 1 289.30859,189.30859 l 7.25977,7.25977 A 80,80 0 0 0 320,140 80,80 0 0 0 296.54688,83.453125 Z m -14.14063,14.140625 -7.07227,7.07227 A 50,50 0 0 1 290,140 50,50 0 0 1 275.35547,175.35547 l 6.91015,6.91015 A 60,60 0 0 0 300,140 60,60 0 0 0 282.40625,97.59375 Z m -14.12109,14.12109 -7.07227,7.07227 A 30,30 0 0 1 270,140 a 30,30 0 0 1 -8.78711,21.21289 l 6.89258,6.89258 A 40,40 0 0 0 280,140 40,40 0 0 0 268.28516,111.71484 Z" />
    </g>
    <g
       id="g571"
       inkscape:label="speech_original"
       transform="translate(-280.7917,347.12871)">
      <path
         style="fill:#66ffcd;fill-opacity:1;stroke:#000000;stroke-width:7.55906;stroke-opacity:1"
         d="M 360,40 V 240 H 510 V 90 L 460,40 Z"
         id="path998" />
      <path
         style="fill:none;fill-opacity:1;stroke:#000000;stroke-width:7.55906;stroke-opacity:1"
         d="m 360,140 h 30 l 20,-50 50,100 20,-50 h 30"
         id="path2911" />
      <path
         style="fill:none;fill-opacity:1;stroke:#000000;stroke-width:7.55906;stroke-opacity:1"
         d="M 510,90 H 460 V 40"
         id="path996" />
    </g>
    <g
       id="g648"
       inkscape:label="shield"
       transform="translate(-493.57768,350.88596)">
      <path
         style="fill:#d9ff66;fill-opacity:1;stroke:#000000;stroke-width:7.559;stroke-dasharray:none;stroke-opacity:1"
         d="m 1180,37.5 c 0,0 -15,20.000015 -45,35 -30,14.999985 -56.4959,12.631545 -55,15 0,0 -10,40.00006 25,95 35,54.99994 85,55 75,55 -10,0 40,-6e-5 75,-55 35,-54.99994 25,-95 25,-95 1.4959,-2.368455 -25,-1.5e-5 -55,-15 -30,-14.999985 -45,-35 -45,-35 z"
         id="path1141" />
      <path
         style="fill:#d9ff66;fill-opacity:1;stroke:#000000;stroke-width:7.559;stroke-dasharray:none;stroke-opacity:1"
         d="m 1180,42.5 v 195"
         id="path1139" />
      <path
         style="fill:#d9ff66;fill-opacity:1;stroke:#000000;stroke-width:7.559;stroke-dasharray:none;stroke-opacity:1"
         d="m 1095,157.5 c 0,0 85,-15 85,-40"
         id="path1137" />
      <path
         style="fill:#d9ff66;fill-opacity:1;stroke:#000000;stroke-width:7.559;stroke-dasharray:none;stroke-opacity:1"
         d="m 1265,157.5 c 0,0 -85,-15 -85,-40"
         id="path3172-6-3" />
    </g>
    <g
       id="g576"
       inkscape:label="speech_desen"
       transform="translate(597.5536,347.12871)">
      <path
         style="fill:#ccb3ff;fill-opacity:1;stroke:#000000;stroke-width:7.55906;stroke-opacity:1"
         d="M 560,40 V 240 H 710 V 90 L 660,40 Z"
         id="path1009" />
      <path
         style="fill:none;fill-opacity:1;stroke:#000000;stroke-width:7.55906;stroke-opacity:1"
         d="M 710,90 H 660 V 40"
         id="path1007" />
      <path
         style="fill:none;fill-opacity:1;stroke:#000000;stroke-width:7.55906;stroke-opacity:1"
         d="m 560,140 h 30 c 0,0 20.63094,-121.995921 45.67596,-0.86481 24.81116,120 43.45923,0 43.45923,0 L 710,140"
         id="path2915-5" />
    </g>
    <g
       id="g918"
       inkscape:label="devil_cloud_unhappy"
       transform="translate(1204.6716,-261.05073)">
      <path
         style="fill:#cc0000;fill-opacity:1;stroke:none;stroke-width:7.559;stroke-dasharray:none;stroke-opacity:1"
         d="m 564.5445,670.07602 a 66.545233,66.126552 0 0 0 -66.46147,64.96416 73.939148,73.473946 0 0 0 -44.44725,67.28894 73.939148,73.473946 0 0 0 73.93915,73.47395 73.939148,73.473946 0 0 0 36.96957,-10.03379 73.939148,73.473946 0 0 0 36.96958,10.03379 73.939148,73.473946 0 0 0 36.9696,-10.03379 73.939148,73.473946 0 0 0 36.9695,10.03379 73.939148,73.473946 0 0 0 73.9392,-73.47395 A 73.939148,73.473946 0 0 0 704.99998,735 66.545233,66.126552 0 0 0 638.48368,670.07602 66.545233,66.126552 0 0 0 601.57762,681.26643 66.545233,66.126552 0 0 0 564.5445,670.07602 Z"
         id="path910" />
      <path
         style="fill:#cc0000;fill-opacity:1;stroke:none;stroke-width:7.559;stroke-dasharray:none;stroke-opacity:1"
         d="m 525,685 c -50,-10 -10,-60 -10,-60 0,0 -50,18.37722 -50,50 0,40 40,40 40,40"
         id="path908" />
      <path
         style="fill:#cc0000;fill-opacity:1;stroke:none;stroke-width:7.559;stroke-dasharray:none;stroke-opacity:1"
         d="m 682.99998,685 c 50,-10 10,-60 10,-60 0,0 50,18.37722 50,50 0,40 -40,40 -40,40"
         id="path906" />
      <path
         style="fill:none;stroke:#ffffff;stroke-width:7.559;stroke-dasharray:none;stroke-opacity:1"
         d="m 535,715 50,50 h -40 z"
         id="path904" />
      <path
         style="fill:none;fill-opacity:1;stroke:#ffffff;stroke-width:7.559;stroke-dasharray:none;stroke-opacity:1"
         d="m 664.99998,715 -10,50 H 615 Z"
         id="path902" />
      <path
         style="fill:none;stroke:#ffffff;stroke-width:7.559;stroke-dasharray:none;stroke-opacity:1"
         d="m 635.27088,839.00244 c 14,-32 -71.00007,-57 -71.00007,-7"
         id="path398-2-6" />
    </g>
  </g>
</svg>
